#N canvas 0 61 1920 994 12;
#X obj 420 708 vline~;
#X obj 420 1129 *~;
#X obj 760 990 dac~ 1 2, f 9;
#X obj 805 -20 r \$0-drop-dur;
#X obj 969 202 r \$0-freq0;
#X msg 936 253 set \$2 \$3;
#X msg 877 278 addcomma;
#X obj 789 217 r \$0-freq1;
#X obj 936 228 pack 0 f 0;
#X obj 762 268 pack 0 f f 0;
#X msg 762 308 add2 \$2 \$3 \$4;
#X obj 701 408 pack 0 f f 0;
#X msg 701 448 add2 \$2 \$3 \$4;
#X obj 728 336 r \$0-freq2;
#X obj 701 188 t b b b b b, f 34;
#X msg 681 560 14 0 \, 12 8.5 0 \, 174.4 76.5 8.5;
#X obj 270 70 bng 15 250 50 0 empty empty empty 17 7 0 10 #fcfcfc #000000
#000000;
#X obj 270 94 t b b b b, f 62;
#X obj 438 878 vsl 15 128 0 127 0 0 empty empty empty 0 -9 0 10 #fcfcfc
#000000 #000000 10600 1;
#X obj 438 1020 / 127;
#X msg 438 1049 \$1 10;
#X obj 438 1078 line~;
#X msg 548 360 addcomma;
#X msg 433 390 add2 \$2 \$3 \$4;
#X msg 372 530 add2 \$2 \$3 \$4;
#X obj 372 270 t b b b b b, f 34;
#X msg 270 642 0 0 \, 1 8.5 0 \, 0 76.5 8.5;
#X text 490 110 2- construct the amp envelope;
#X obj 805 75 s \$0-drop-time01;
#X obj 893 110 s \$0-drop-time12;
#X obj 816 241 r \$0-drop-time01;
#X obj 755 361 r \$0-drop-time12;
#X obj 782 384 r \$0-drop-time01;
#X obj 453 466 r \$0-drop-time01;
#X obj 426 443 r \$0-drop-time12;
#X obj 500 303 r \$0-drop-time01;
#X text 240 170 4- send the amp envelope;
#X obj 438 798 vline~;
#X obj 420 830 *~;
#X obj 372 490 pack 0 0 f 0;
#X obj 209 3 key;
#X obj 209 32 sel 32;
#X obj 420 1160 s~ direct-sound;
#X obj 1320 601 r~ direct-sound;
#X obj 1320 630 delwrite~ \$0-buff 1000;
#X obj 1190 558 sig~;
#X obj 1190 587 vd~ \$0-buff;
#X obj 1190 696 s~ delayed-sound;
#X obj 1190 520 r \$0-delay-time;
#X obj 1190 651 *~;
#X obj 1208 616 r \$0-delay-amp;
#X obj 760 812 r~ direct-sound;
#X obj 778 853 r~ delayed-sound;
#X obj 760 900 +~;
#X obj 760 950 freeverb~;
#N canvas 2 1112 1916 1044 values 1;
#X floatatom 132 -472 5 0 0 0 - - -, f 5;
#X floatatom 500 -520 5 0 0 0 - - -, f 5;
#X text 540 -520 total duration of a drop;
#X obj 500 -492 s \$0-drop-dur;
#X obj 132 -438 s \$0-freq0;
#X floatatom 212 -472 5 0 0 0 - - -, f 5;
#X obj 212 -438 s \$0-freq1;
#X floatatom 291 -472 5 0 0 0 - - -, f 5;
#X obj 291 -438 s \$0-freq2;
#X text 122 -498 go from f0 to f1 \, then from f1 to f2;
#X floatatom 760 -470 5 0 0 0 - - -, f 5;
#X obj 760 -442 s \$0-delay-time;
#X floatatom 890 -458 5 0 0 0 - - -, f 5;
#X obj 890 -480 hsl 64 10 0 1 0 0 empty empty empty -2 -8 0 10 #fcfcfc
#000000 #000000 1260 1;
#X obj 890 -430 s \$0-delay-amp;
#X obj 100 -580 loadbang;
#X text 60 -520 triangular trajectory of frequency:;
#X obj 798 -562 loadbang;
#X obj 1050 -300 vsl 15 128 0 1 0 0 empty empty empty 0 -9 0 10 #fcfcfc
#000000 #000000 6350 1;
#X msg 1050 -129 dry \$1;
#X obj 1110 -300 vsl 15 128 0 1 0 0 empty empty empty 0 -9 0 10 #fcfcfc
#000000 #000000 3810 1;
#X msg 1110 -129 wet \$1;
#X obj 1170 -300 vsl 15 128 0 1 0 0 empty empty empty 0 -9 0 10 #fcfcfc
#000000 #000000 6350 1;
#X obj 1250 -300 vsl 15 128 0 1 0 0 empty empty empty 0 -9 0 10 #fcfcfc
#000000 #000000 8890 1;
#X msg 1170 -129 damping \$1;
#X msg 1250 -129 roomsize \$1;
#X obj 1160 -40 s \$0-to-reverb;
#X obj 1150 -420 loadbang;
#X msg 1100 -381 0.5;
#X obj 500 -587 loadbang;
#X msg 838 -532 0.2;
#X msg 1180 -381 0.5;
#X msg 798 -533 100;
#X msg 1240 -381 0.7;
#X msg 1143 -381 0.3;
#X msg 140 -550 200;
#X msg 179 -548 500;
#X msg 100 -551 50;
#X msg 500 -558 85;
#X connect 0 0 4 0;
#X connect 1 0 3 0;
#X connect 5 0 6 0;
#X connect 7 0 8 0;
#X connect 10 0 11 0;
#X connect 12 0 14 0;
#X connect 13 0 12 0;
#X connect 15 0 37 0;
#X connect 15 0 35 0;
#X connect 15 0 36 0;
#X connect 17 0 32 0;
#X connect 17 0 30 0;
#X connect 18 0 19 0;
#X connect 19 0 26 0;
#X connect 20 0 21 0;
#X connect 21 0 26 0;
#X connect 22 0 24 0;
#X connect 23 0 25 0;
#X connect 24 0 26 0;
#X connect 25 0 26 0;
#X connect 27 0 28 0;
#X connect 27 0 34 0;
#X connect 27 0 31 0;
#X connect 27 0 33 0;
#X connect 28 0 18 0;
#X connect 29 0 38 0;
#X connect 30 0 13 0;
#X connect 31 0 22 0;
#X connect 32 0 10 0;
#X connect 33 0 23 0;
#X connect 34 0 20 0;
#X connect 35 0 5 0;
#X connect 36 0 7 0;
#X connect 37 0 0 0;
#X connect 38 0 1 0;
#X restore 1240 71 pd values;
#X obj 805 30 expr 0.1*$f1 \; 0.9*$f1;
#X obj 830 890 r \$0-to-reverb;
#X msg 607 335 set 0 0;
#X obj 433 350 pack 0 1 f;
#X text 340 130 3- send the frequency envelope;
#X text 708 160 1- construct the frequency envelope;
#X floatatom 47 277 5 0 0 0 - - -, f 5;
#X floatatom 97 307 5 0 0 0 - - -, f 5;
#X floatatom 137 267 5 0 0 0 - - -, f 5;
#X obj 50 140 random 100;
#X obj 7 377 s \$0-freq0;
#X obj 97 347 s \$0-freq1;
#X obj 147 297 s \$0-freq2;
#X obj 420 758 osc~;
#X obj -43 167 random 50;
#X obj 70 10 tgl 15 0 empty empty empty 17 7 0 10 #fcfcfc #000000 #000000
1 1;
#X obj 70 34 metro 300;
#X msg 70 63 32;
#X obj 120 -111 tgl 15 0 empty empty empty 17 7 0 10 #fcfcfc #000000
#000000 1 1;
#X obj 120 -58 random 500;
#X obj 120 -29 + 20;
#X obj 120 0 t b f;
#X obj 50 198 expr $f1+$f2 \; $f1*2*$f2/4 \; $f1*1.2+800*$f2/10;
#X obj 120 -87 metro 100;
#X floatatom 180 -110 5 0 0 0 - - -, f 5;
#X connect 0 0 69 0;
#X connect 1 0 42 0;
#X connect 3 0 56 0;
#X connect 4 0 8 1;
#X connect 5 0 15 0;
#X connect 6 0 15 0;
#X connect 7 0 9 1;
#X connect 8 0 5 0;
#X connect 9 0 10 0;
#X connect 10 0 15 0;
#X connect 11 0 12 0;
#X connect 12 0 15 0;
#X connect 13 0 11 1;
#X connect 14 0 11 0;
#X connect 14 1 6 0;
#X connect 14 2 9 0;
#X connect 14 3 6 0;
#X connect 14 4 8 0;
#X connect 15 0 0 0;
#X connect 16 0 17 0;
#X connect 17 0 26 0;
#X connect 17 1 15 0;
#X connect 17 2 25 0;
#X connect 17 3 14 0;
#X connect 18 0 19 0;
#X connect 19 0 20 0;
#X connect 20 0 21 0;
#X connect 21 0 1 1;
#X connect 22 0 26 0;
#X connect 23 0 26 0;
#X connect 24 0 26 0;
#X connect 25 0 39 0;
#X connect 25 1 22 0;
#X connect 25 2 59 0;
#X connect 25 3 22 0;
#X connect 25 4 58 0;
#X connect 26 0 37 0;
#X connect 30 0 9 2;
#X connect 31 0 11 2;
#X connect 32 0 11 3;
#X connect 33 0 39 3;
#X connect 34 0 39 2;
#X connect 35 0 59 2;
#X connect 37 0 38 1;
#X connect 38 0 1 0;
#X connect 39 0 24 0;
#X connect 40 0 41 0;
#X connect 41 0 16 0;
#X connect 41 0 65 0;
#X connect 41 0 70 0;
#X connect 43 0 44 0;
#X connect 45 0 46 0;
#X connect 46 0 49 0;
#X connect 48 0 45 0;
#X connect 49 0 47 0;
#X connect 50 0 49 1;
#X connect 51 0 53 0;
#X connect 52 0 53 1;
#X connect 53 0 54 0;
#X connect 53 0 54 1;
#X connect 54 0 2 0;
#X connect 54 1 2 1;
#X connect 56 0 28 0;
#X connect 56 1 29 0;
#X connect 57 0 54 0;
#X connect 58 0 26 0;
#X connect 59 0 23 0;
#X connect 62 0 66 0;
#X connect 63 0 67 0;
#X connect 64 0 68 0;
#X connect 65 0 78 0;
#X connect 69 0 38 0;
#X connect 70 0 78 1;
#X connect 71 0 72 0;
#X connect 72 0 73 0;
#X connect 73 0 41 0;
#X connect 74 0 79 0;
#X connect 75 0 76 0;
#X connect 76 0 77 0;
#X connect 77 0 72 0;
#X connect 77 1 72 1;
#X connect 78 0 62 0;
#X connect 78 1 63 0;
#X connect 78 2 64 0;
#X connect 79 0 75 0;
#X connect 80 0 79 1;
