#N canvas 0 61 1920 994 12;
#X floatatom 80 37 5 0 0 0 x_pos - -, f 5;
#X obj 80 0 legacy_mousemotion;
#X floatatom 185 37 5 0 0 0 y_pos - -, f 5;
#X text 370 -10 inspiration: Interactive vibrotactile feedback enhances
the perceived quality of a surface for musical expression and the playing
experience \; by Stefano Papetti \, Hanna Järveläinen and Sébastien
Schiesser;
#X obj 30 251 / 127;
#X obj 30 280 * 60;
#X obj 30 461 phasor~;
#X obj 30 490 -~ 0.5;
#X obj 30 519 *~ 2;
#X obj 30 349 mtof;
#X obj 130 311 noise~;
#X obj 83 589 +~;
#X obj 58 648 dac~ 1 2;
#X obj 130 460 *~;
#X obj 215 258 / 127;
#X obj 83 618 *~;
#X obj 120 580 tgl 15 0 empty empty empty 17 7 0 10 #fcfcfc #000000
#000000 0 1;
#X obj 30 110 vsl 15 128 0 127 0 0 empty empty empty 0 -9 0 10 #fcfcfc
#000000 #000000 6350 1;
#X obj 30 309 + 24;
#X obj 215 120 vsl 15 128 0 127 0 0 empty empty empty 0 -9 0 10 #fcfcfc
#000000 #000000 8600 1;
#X obj 480 271 / 127;
#X obj 480 300 * 60;
#X obj 480 481 phasor~;
#X obj 480 510 -~ 0.5;
#X obj 480 539 *~ 2;
#X obj 480 369 mtof;
#X obj 508 738 dac~ 1 2;
#X obj 665 278 / 127;
#X obj 533 708 *~;
#X obj 570 670 tgl 15 0 empty empty empty 17 7 0 10 #fcfcfc #000000
#000000 1 1;
#X obj 480 130 vsl 15 128 0 127 0 0 empty empty empty 0 -9 0 10 #fcfcfc
#000000 #000000 5600 1;
#X obj 480 329 + 24;
#X obj 665 140 vsl 15 128 0 127 0 0 empty empty empty 0 -9 0 10 #fcfcfc
#000000 #000000 0 1;
#X obj 480 398 sig~;
#X obj 480 438 +~;
#X obj 665 337 osc~;
#X obj 665 366 *~ 10;
#X obj 810 388 / 127;
#X obj 810 250 vsl 15 128 0 127 0 0 empty empty empty 0 -9 0 10 #fcfcfc
#000000 #000000 1050 1;
#X obj 533 679 *~;
#X msg 810 417 \$1 10;
#X obj 810 446 line~;
#X obj 480 568 lop~;
#X obj 480 597 lop~;
#X obj 480 626 lop~;
#X obj 665 307 * 10;
#X obj 140 520 env~;
#X floatatom 140 549 5 0 0 0 - - -, f 5;
#X obj 10 561 env~;
#X floatatom 10 590 5 0 0 0 - - -, f 5;
#X obj 215 287 * 50;
#X obj 130 431 bp~ 100 30;
#X obj 662 459 maxlib/scale 0 1 500 15000 1;
#X connect 1 0 0 0;
#X connect 1 1 2 0;
#X connect 4 0 5 0;
#X connect 5 0 18 0;
#X connect 6 0 7 0;
#X connect 7 0 8 0;
#X connect 8 0 11 0;
#X connect 8 0 48 0;
#X connect 9 0 6 0;
#X connect 9 0 51 1;
#X connect 10 0 51 0;
#X connect 11 0 15 0;
#X connect 13 0 11 1;
#X connect 13 0 46 0;
#X connect 14 0 50 0;
#X connect 15 0 12 0;
#X connect 15 0 12 1;
#X connect 16 0 15 1;
#X connect 17 0 4 0;
#X connect 18 0 9 0;
#X connect 19 0 14 0;
#X connect 20 0 21 0;
#X connect 21 0 31 0;
#X connect 22 0 23 0;
#X connect 23 0 24 0;
#X connect 24 0 42 0;
#X connect 25 0 33 0;
#X connect 27 0 45 0;
#X connect 28 0 26 0;
#X connect 28 0 26 1;
#X connect 29 0 28 1;
#X connect 30 0 20 0;
#X connect 31 0 25 0;
#X connect 32 0 27 0;
#X connect 33 0 34 0;
#X connect 34 0 22 0;
#X connect 35 0 36 0;
#X connect 36 0 34 1;
#X connect 37 0 40 0;
#X connect 37 0 52 0;
#X connect 38 0 37 0;
#X connect 39 0 28 0;
#X connect 40 0 41 0;
#X connect 41 0 39 1;
#X connect 42 0 43 0;
#X connect 43 0 44 0;
#X connect 44 0 39 0;
#X connect 45 0 35 0;
#X connect 46 0 47 0;
#X connect 48 0 49 0;
#X connect 50 0 13 1;
#X connect 51 0 13 0;
#X connect 52 0 42 1;
#X connect 52 0 43 1;
#X connect 52 0 44 1;
