#N canvas 30 152 1920 1023 12;
#X text 410 -60 inspiration: Interactive vibrotactile feedback enhances
the perceived quality of a surface for musical expression and the playing
experience \; by Stefano Papetti \, Hanna Järveläinen and Sébastien
Schiesser;
#X obj 30 251 / 127;
#X obj 30 280 * 60;
#X obj 30 461 phasor~;
#X obj 30 490 -~ 0.5;
#X obj 30 519 *~ 2;
#X obj 30 349 mtof;
#X obj 130 311 noise~;
#X obj 83 589 +~;
#X obj 58 648 dac~ 1 2;
#X obj 130 460 *~;
#X obj 214 258 / 127;
#X obj 83 618 *~;
#X obj 120 580 tgl 15 0 empty empty empty 17 7 0 10 #fcfcfc #000000
#000000 0 1;
#X obj 30 110 vsl 15 128 0 127 0 0 empty empty empty 0 -9 0 10 #fcfcfc
#000000 #000000 6756 1;
#X obj 30 309 + 24;
#X obj 214 120 vsl 15 128 0 127 0 0 empty empty empty 0 -9 0 10 #fcfcfc
#000000 #000000 762 1;
#X obj 480 271 / 127;
#X obj 480 300 * 60;
#X obj 480 481 phasor~;
#X obj 480 510 -~ 0.5;
#X obj 480 539 *~ 2;
#X obj 480 369 mtof;
#X obj 508 738 dac~ 1 2;
#X obj 665 278 / 127;
#X obj 533 708 *~;
#X obj 570 670 tgl 15 0 empty empty empty 17 7 0 10 #fcfcfc #000000
#000000 1 1;
#X obj 480 130 vsl 15 128 0 127 0 0 empty empty empty 0 -9 0 10 #fcfcfc
#000000 #000000 6756 1;
#X obj 480 329 + 24;
#X obj 665 140 vsl 15 128 0 127 0 0 empty empty empty 0 -9 0 10 #fcfcfc
#000000 #000000 762 1;
#X obj 480 398 sig~;
#X obj 480 438 +~;
#X obj 665 337 osc~;
#X obj 665 366 *~ 10;
#X obj 810 388 / 127;
#X obj 810 250 vsl 15 128 0 127 0 0 empty empty empty 0 -9 0 10 #fcfcfc
#000000 #000000 2277 1;
#X obj 533 679 *~;
#X msg 810 417 \$1 10;
#X obj 810 446 line~;
#X obj 480 568 lop~;
#X obj 480 597 lop~;
#X obj 480 626 lop~;
#X obj 665 307 * 10;
#X obj 140 520 env~;
#X floatatom 140 549 5 0 0 0 - - -, f 5;
#X obj 10 561 env~;
#X floatatom 10 590 5 0 0 0 - - -, f 5;
#X obj 214 287 * 50;
#X obj 130 431 bp~ 100 30;
#X obj 660 490 maxlib/scale 0 1 500 15000 1;
#X obj 214 97 * 127;
#X text 10 -40 "SOUND 2";
#X obj 30 81 * 127;
#X obj 665 110 * 127;
#X obj 480 100 * 127;
#X floatatom 1173 496 9 0 0 1 X-position - -, f 9;
#X floatatom 1193 470 8 0 0 1 Y-position - -, f 8;
#X obj 1173 426 gemmouse 1 1;
#X obj 1170 550 tgl 15 1 empty empty empty 17 7 0 10 #fcfcfc #000000
#000000 1 1;
#N canvas 591 356 498 378 follow_mouse 0;
#X obj 112 29 inlet;
#X obj 168 74 * 8;
#X obj 168 97 - 4;
#X obj 168 31 inlet;
#X obj 112 129 gemhead;
#X obj 112 189 translateXYZ;
#X obj 112 217 colorRGB 1 0 0;
#X obj 112 242 square 0.25;
#X obj 214 139 - 4;
#X obj 214 33 inlet;
#X text 253 76 invert y;
#X obj 214 116 * 8;
#X msg 214 57 1 \$1;
#X obj 214 81 -;
#X connect 0 0 4 0;
#X connect 1 0 2 0;
#X connect 2 0 5 1;
#X connect 3 0 1 0;
#X connect 4 0 5 0;
#X connect 5 0 6 0;
#X connect 6 0 7 0;
#X connect 8 0 5 2;
#X connect 9 0 12 0;
#X connect 11 0 8 0;
#X connect 12 0 13 0;
#X connect 13 0 11 0;
#X restore 1170 570 pd follow_mouse;
#N canvas 0 22 450 300 gemwin 0;
#X obj 132 136 gemwin;
#X obj 67 89 outlet;
#X obj 67 10 inlet;
#X obj 67 41 route create;
#X msg 67 70 set destroy;
#X msg 142 68 set create;
#X msg 198 112 destroy;
#X msg 132 112 create \, 1;
#X connect 2 0 3 0;
#X connect 3 0 4 0;
#X connect 3 0 7 0;
#X connect 3 1 5 0;
#X connect 3 1 6 0;
#X connect 4 0 1 0;
#X connect 5 0 1 0;
#X connect 6 0 0 0;
#X connect 7 0 0 0;
#X restore 1550 390 pd gemwin;
#X msg 1550 366 destroy;
#X text 1500 330 Create window:;
#X obj 1140 500 s X;
#X obj 1170 470 s Y;
#X obj 30 50 r X;
#X obj 214 70 r Y;
#X obj 480 66 r X;
#X obj 665 86 r Y;
#X obj 1140 160 r X;
#N canvas 430 1429 450 300 diff 0;
#X obj 110 211 - 0;
#X obj 110 120 t f f;
#X obj 110 60 inlet;
#X obj 110 240 outlet;
#X connect 0 0 3 0;
#X connect 1 0 0 1;
#X connect 1 1 0 0;
#X connect 2 0 1 0;
#X restore 1140 190 pd diff;
#X floatatom 1090 190 5 0 0 0 - - -, f 5;
#X obj 1140 219 s dX;
#N canvas 430 1429 450 300 diff 0;
#X obj 110 211 - 0;
#X obj 110 120 t f f;
#X obj 110 60 inlet;
#X obj 110 240 outlet;
#X connect 0 0 3 0;
#X connect 1 0 0 1;
#X connect 1 1 0 0;
#X connect 2 0 1 0;
#X restore 1282 193 pd diff;
#X floatatom 1232 193 5 0 0 0 - - -, f 5;
#X obj 1282 163 r Y;
#X obj 1282 222 s dY;
#X obj 910 30 r dX;
#X obj 950 30 r dY;
#X obj 910 130 +;
#X obj 950 89 t b f;
#X obj 910 59 pow 2;
#X obj 950 59 pow 2;
#X obj 910 159 sqrt;
#X obj 910 188 * 150;
#X connect 1 0 2 0;
#X connect 2 0 15 0;
#X connect 3 0 4 0;
#X connect 4 0 5 0;
#X connect 5 0 8 0;
#X connect 5 0 45 0;
#X connect 6 0 3 0;
#X connect 6 0 48 1;
#X connect 7 0 48 0;
#X connect 8 0 12 0;
#X connect 10 0 8 1;
#X connect 10 0 43 0;
#X connect 11 0 47 0;
#X connect 12 0 9 0;
#X connect 12 0 9 1;
#X connect 13 0 12 1;
#X connect 14 0 1 0;
#X connect 15 0 6 0;
#X connect 16 0 11 0;
#X connect 17 0 18 0;
#X connect 18 0 28 0;
#X connect 19 0 20 0;
#X connect 20 0 21 0;
#X connect 21 0 39 0;
#X connect 22 0 30 0;
#X connect 24 0 42 0;
#X connect 25 0 23 0;
#X connect 25 0 23 1;
#X connect 26 0 25 1;
#X connect 27 0 17 0;
#X connect 28 0 22 0;
#X connect 29 0 24 0;
#X connect 30 0 31 0;
#X connect 31 0 19 0;
#X connect 32 0 33 0;
#X connect 33 0 31 1;
#X connect 34 0 37 0;
#X connect 34 0 49 0;
#X connect 35 0 34 0;
#X connect 36 0 25 0;
#X connect 37 0 38 0;
#X connect 38 0 36 1;
#X connect 39 0 40 0;
#X connect 40 0 41 0;
#X connect 41 0 36 0;
#X connect 42 0 32 0;
#X connect 43 0 44 0;
#X connect 45 0 46 0;
#X connect 47 0 10 1;
#X connect 48 0 10 0;
#X connect 49 0 39 1;
#X connect 49 0 40 1;
#X connect 49 0 41 1;
#X connect 50 0 16 0;
#X connect 52 0 14 0;
#X connect 53 0 29 0;
#X connect 54 0 27 0;
#X connect 55 0 59 1;
#X connect 55 0 63 0;
#X connect 56 0 59 2;
#X connect 56 0 64 0;
#X connect 57 0 55 0;
#X connect 57 1 56 0;
#X connect 58 0 59 0;
#X connect 60 0 61 0;
#X connect 61 0 60 0;
#X connect 65 0 52 0;
#X connect 66 0 50 0;
#X connect 67 0 54 0;
#X connect 68 0 53 0;
#X connect 69 0 70 0;
#X connect 70 0 71 0;
#X connect 70 0 72 0;
#X connect 73 0 74 0;
#X connect 73 0 76 0;
#X connect 75 0 73 0;
#X connect 77 0 81 0;
#X connect 78 0 82 0;
#X connect 79 0 83 0;
#X connect 80 0 79 0;
#X connect 80 1 79 1;
#X connect 81 0 79 0;
#X connect 82 0 80 0;
#X connect 83 0 84 0;
#X connect 84 0 35 0;
