#N canvas 463 145 1108 622 12;
#X obj 337 501 dac~ 1 2;
#X obj 358 448 *~;
#X obj 436 236 vsl 25 80 0 127 0 0 empty empty empty 0 -9 0 10 #fcfcfc
#000000 #000000 0 1;
#X obj 436 329 / 127;
#X msg 436 358 \$1 10;
#X obj 436 387 line~;
#N canvas 75 1183 1912 1025 sel-formants 0;
#X obj 53 -602 key;
#X floatatom 94 -585 5 0 0 0 - - -, f 5;
#X msg 53 -472 \; F1 1000 \; F2 1400;
#X text 296 -227 é [e];
#X text 325 -115 è [ɛ];
#X text 267 -330 y [y];
#X obj 53 -533 sel 97 101 105 111 117 121 130 138 133;
#X text 354 -429 à [ɑ];
#X text 178 -254 i [i];
#X text 205 -149 o [o];
#X text 237 -441 u [u];
#X text 89 -408 e [ø];
#X text 43 -499 a [a];
#X obj -24 -819 keyname;
#X symbolatom 94 -563 5 0 0 0 - - -, f 5;
#X msg 169 -455 \; F1 320 \; F2 800 \;;
#X msg 286 -443 \; F1 700 \; F2 1150;
#X msg 199 -344 \; F1 320 \; F2 1650;
#X msg 228 -241 \; F1 500 \; F2 2300;
#X msg 257 -129 \; F1 700 \; F2 1800;
#X msg 140 -172 \; F1 500 \; F2 1000;
#X msg 111 -277 \; F1 320 \; F2 3200;
#X msg 82 -387 \; F1 500 \; F2 1500;
#X obj 171 -717 bng 16 250 50 0 empty empty empty 17 7 0 10 #fcfcfc
#000000 #000000;
#X msg -57 -740 97;
#X obj 171 -698 bng 16 250 50 0 empty empty empty 17 7 0 10 #fcfcfc
#000000 #000000;
#X msg -57 -717 101;
#X text 191 -700 e [ø];
#X text 191 -719 a [a];
#X obj 171 -678 bng 16 250 50 0 empty empty empty 17 7 0 10 #fcfcfc
#000000 #000000;
#X text 191 -680 i [i];
#X msg -57 -697 105;
#X obj 171 -659 bng 16 250 50 0 empty empty empty 17 7 0 10 #fcfcfc
#000000 #000000;
#X obj 171 -640 bng 16 250 50 0 empty empty empty 17 7 0 10 #fcfcfc
#000000 #000000;
#X obj 171 -620 bng 16 250 50 0 empty empty empty 17 7 0 10 #fcfcfc
#000000 #000000;
#X text 191 -661 o [o];
#X msg -57 -682 111;
#X msg -57 -659 117;
#X text 191 -642 u [u];
#X msg -57 -639 121;
#X text 191 -622 y [y];
#X obj 171 -600 bng 16 250 50 0 empty empty empty 17 7 0 10 #fcfcfc
#000000 #000000;
#X obj 171 -581 bng 16 250 50 0 empty empty empty 17 7 0 10 #fcfcfc
#000000 #000000;
#X obj 171 -561 bng 16 250 50 0 empty empty empty 17 7 0 10 #fcfcfc
#000000 #000000;
#X msg -57 -623 130;
#X msg -57 -600 138;
#X msg -57 -580 133;
#X text 191 -602 é [e];
#X text 191 -583 è [ɛ];
#X text 191 -563 à [ɑ];
#X text 90 -609 keyboard;
#X text 172 -736 manual;
#X floatatom 405 -619 5 0 0 0 - - -, f 5;
#X obj 405 -677 random 40;
#X obj 405 -648 + 94;
#X obj 274 -708 tgl 15 0 empty empty empty 17 7 0 10 #fcfcfc #000000
#000000 0 1;
#X obj 447 -729 metro 200;
#X text 274 -737 random;
#X floatatom 274 -681 5 0 0 0 - - -, f 5;
#X text 310 -683 time;
#X text 290 -710 on/off;
#X connect 0 0 1 0;
#X connect 0 0 6 0;
#X connect 6 0 2 0;
#X connect 6 1 22 0;
#X connect 6 2 21 0;
#X connect 6 3 20 0;
#X connect 6 4 15 0;
#X connect 6 5 17 0;
#X connect 6 6 18 0;
#X connect 6 7 19 0;
#X connect 6 8 16 0;
#X connect 13 1 14 0;
#X connect 23 0 24 0;
#X connect 24 0 6 0;
#X connect 25 0 26 0;
#X connect 26 0 6 0;
#X connect 29 0 31 0;
#X connect 31 0 6 0;
#X connect 32 0 36 0;
#X connect 33 0 37 0;
#X connect 34 0 39 0;
#X connect 36 0 6 0;
#X connect 37 0 6 0;
#X connect 39 0 6 0;
#X connect 41 0 44 0;
#X connect 42 0 45 0;
#X connect 43 0 46 0;
#X connect 44 0 6 0;
#X connect 45 0 6 0;
#X connect 46 0 6 0;
#X connect 53 0 54 0;
#X connect 54 0 52 0;
#X connect 54 0 6 0;
#X connect 55 0 56 0;
#X connect 56 0 53 0;
#X connect 58 0 56 1;
#X coords 0 -1 1 1 259 235 1 88 -769;
#X restore 789 18 pd sel-formants;
#X obj 358 333 *~;
#N canvas 350 242 1002 556 source 0;
#X obj 187 297 outlet~;
#X floatatom 142 -51 5 0 0 0 - - -, f 5;
#X obj 296 68 phasor~;
#X obj 296 97 -~ 0.5;
#X obj 296 126 *~ 2;
#X obj 89 102 noise~;
#X obj 142 -85 tgl 15 0 empty empty empty 17 7 0 10 #fcfcfc #000000
#000000 1 1;
#X obj 137 20 expr 1 - $f1;
#X msg 137 49 \$1 40;
#X obj 137 78 line~;
#X obj 174 146 *~;
#X msg 204 50 \$1 40;
#X obj 204 79 line~;
#X obj 215 148 *~;
#X obj 40 -14 loadbang;
#X msg 40 15 1;
#X obj 296 -192 adc~ 1;
#X obj 296 -163 fiddle~;
#X obj 296 -134 mtof;
#X text 159 -95 on = voiced;
#X text 159 -77 off = unvoiced;
#X text 180 -51 f0;
#X obj 187 193 lop~ 3000;
#X obj 187 222 lop~ 3000;
#X obj 187 251 lop~ 3000;
#X obj 383 -57 sel 0 1;
#X msg 383 -28 \; Q1 85 \; Q2 85;
#X msg 406 49 \; Q1 50 \; Q2 50;
#X connect 1 0 2 0;
#X connect 2 0 3 0;
#X connect 3 0 4 0;
#X connect 4 0 13 0;
#X connect 5 0 10 0;
#X connect 6 0 7 0;
#X connect 6 0 11 0;
#X connect 6 0 25 0;
#X connect 7 0 8 0;
#X connect 8 0 9 0;
#X connect 9 0 10 1;
#X connect 10 0 22 0;
#X connect 11 0 12 0;
#X connect 12 0 13 1;
#X connect 13 0 22 0;
#X connect 14 0 15 0;
#X connect 15 0 6 0;
#X connect 16 0 17 0;
#X connect 17 0 18 0;
#X connect 18 0 1 0;
#X connect 22 0 23 0;
#X connect 23 0 24 0;
#X connect 24 0 0 0;
#X connect 25 0 26 0;
#X connect 25 1 27 0;
#X coords 0 -1 1 1 176 95 1 100 -103;
#X restore 128 19 pd source;
#X obj 366 -41 adc~ 1;
#N canvas 531 359 450 300 filter 0;
#X obj 115 -91 inlet~;
#X obj 115 309 outlet~;
#X obj 173 -25 r F1;
#X floatatom 207 -24 5 0 0 0 - - -, f 5;
#X floatatom 265 18 5 0 0 0 - - -, f 5;
#X obj 231 17 r Q1;
#X msg 173 4 \$1 20;
#X obj 173 33 line~;
#X obj 115 78 vcf~, f 17;
#X floatatom 294 81 5 0 0 0 - - -, f 5;
#X floatatom 352 123 5 0 0 0 - - -, f 5;
#X msg 260 109 \$1 20;
#X obj 260 138 line~;
#X obj 202 183 vcf~, f 17;
#X obj 260 80 r F2;
#X obj 318 122 r Q2;
#X connect 0 0 8 0;
#X connect 0 0 13 0;
#X connect 2 0 3 0;
#X connect 2 0 6 0;
#X connect 5 0 4 0;
#X connect 5 0 8 2;
#X connect 6 0 7 0;
#X connect 7 0 8 1;
#X connect 8 0 1 0;
#X connect 11 0 12 0;
#X connect 12 0 13 1;
#X connect 13 0 1 0;
#X connect 14 0 9 0;
#X connect 14 0 11 0;
#X connect 15 0 10 0;
#X connect 15 0 13 2;
#X restore 128 134 pd filter;
#N canvas 309 187 860 608 attack-detection 0;
#X obj 103 -3 env~;
#X floatatom -8 456 5 0 0 0 - - -, f 5;
#X obj -63 70 t b f;
#X floatatom -63 93 0 0 0 0 - - -;
#X obj -57 138 pack;
#X obj -57 161 route 0 1;
#X obj -57 207 sel 1;
#X msg -136 142 1;
#X obj -63 115 != 0;
#X obj 157 44 t b f;
#X floatatom 157 70 0 0 0 0 - - -;
#X obj 169 120 pack;
#X obj 169 143 route 0 1;
#X obj 169 179 sel 1;
#X msg 97 186 1;
#X msg 259 81 0;
#X obj 162 98 != 0;
#X obj 173 215 timer;
#X obj 255 144 sel 0;
#X obj 237 264 sel 0;
#X obj 187 264 sel 1;
#X text -117 38 ATTACK DETECTION;
#X text 167 25 REST DETECTION;
#X obj 103 -61 inlet~;
#X obj -57 245 outlet attack;
#X obj 173 238 > 200;
#X text 317 122 from purr-data's C07.envelope.follower;
#X obj -10 493 bng 15 250 50 0 empty empty empty 17 7 0 10 #fcfcfc
#000000 #000000;
#X text 6 490 attack;
#X obj 72 493 bng 15 250 50 0 empty empty empty 17 7 0 10 #fcfcfc #000000
#000000;
#X text 88 490 release;
#X obj 187 305 outlet release;
#X floatatom 87 411 5 0 0 0 - - -, f 5;
#X text 125 410 high;
#X floatatom 87 435 5 0 0 0 - - -, f 5;
#X text 125 434 low;
#X text 64 389 set thresholds;
#X text -13 437 RT-amp;
#X obj -57 184 > 50;
#X floatatom 88 461 5 0 0 0 - - -, f 5;
#X text 126 460 debounce;
#X obj 200 71 < 35;
#X msg 29 137 0;
#X obj -11 208 sel 1;
#X obj -11 185 > 40;
#X connect 0 0 1 0;
#X connect 0 0 2 0;
#X connect 0 0 9 0;
#X connect 2 0 3 0;
#X connect 2 1 4 1;
#X connect 3 0 8 0;
#X connect 4 0 5 0;
#X connect 5 0 38 0;
#X connect 5 1 44 0;
#X connect 6 0 7 0;
#X connect 6 0 24 0;
#X connect 6 0 27 0;
#X connect 7 0 3 0;
#X connect 8 0 4 0;
#X connect 9 0 10 0;
#X connect 9 1 41 0;
#X connect 10 0 16 0;
#X connect 11 0 12 0;
#X connect 12 0 13 0;
#X connect 12 1 19 0;
#X connect 13 0 17 1;
#X connect 14 0 10 0;
#X connect 15 0 10 0;
#X connect 16 0 11 0;
#X connect 17 0 25 0;
#X connect 18 0 17 0;
#X connect 19 0 15 0;
#X connect 20 0 14 0;
#X connect 20 0 31 0;
#X connect 20 0 29 0;
#X connect 23 0 0 0;
#X connect 25 0 20 0;
#X connect 32 0 38 1;
#X connect 34 0 41 1;
#X connect 38 0 6 0;
#X connect 39 0 25 1;
#X connect 41 0 11 1;
#X connect 41 0 18 0;
#X connect 42 0 3 0;
#X connect 43 0 42 0;
#X connect 44 0 43 0;
#X coords 0 -1 1 1 242 145 1 -33 371;
#X restore 376 -11 pd attack-detection;
#N canvas 463 1232 450 325 thresholds 0;
#X obj 137 143 env~;
#X obj 137 95 inlet~;
#X obj 206 323 / 100;
#X obj 206 411 line~;
#X msg 245 178 1;
#X obj 206 262 spigot;
#X msg 335 190 0;
#X msg 206 382 \$1 20;
#X obj 206 463 outlet~ amp;
#X obj 245 97 inlet onset;
#X obj 335 98 inlet offset;
#X obj 335 213 t f f;
#X connect 0 0 5 0;
#X connect 1 0 0 0;
#X connect 2 0 7 0;
#X connect 3 0 8 0;
#X connect 4 0 5 1;
#X connect 5 0 2 0;
#X connect 6 0 11 0;
#X connect 7 0 3 0;
#X connect 9 0 4 0;
#X connect 10 0 6 0;
#X connect 11 0 2 0;
#X connect 11 1 5 1;
#X restore 376 151 pd thresholds;
#X connect 1 0 0 0;
#X connect 1 0 0 1;
#X connect 2 0 3 0;
#X connect 3 0 4 0;
#X connect 4 0 5 0;
#X connect 5 0 1 1;
#X connect 7 0 1 0;
#X connect 8 0 10 0;
#X connect 9 0 11 0;
#X connect 9 0 12 0;
#X connect 10 0 7 0;
#X connect 11 0 12 1;
#X connect 11 1 12 2;
#X connect 12 0 7 1;
