#N canvas 392 376 873 582 12;
#N canvas 0 0 450 300 (subpatch) 0;
#X array \$0-viz 1575 float 0 black black;
#X coords 0 1 1574 -1 200 140 1;
#X restore 344 51 graph;
#X obj 164 340 tabwrite~ \$0-viz;
#X obj 57 56 inlet~ sig;
#X obj 379 251 inlet freq;
#X msg 379 416 \; \$0-viz resize \$1;
#X obj 202 149 metro 200;
#X obj 379 333 samplerate~;
#X obj 379 370 /;
#X text 387 394 npts per cycle;
#X obj 379 280 t b f f;
#X obj 425 305 expr 1000/$f1;
#X obj 382 10 tgl 15 0 empty empty empty 17 7 0 10 #fcfcfc #000000
#000000 1 1;
#X obj -1 212 fiddle~;
#X obj -1 241 mtof;
#X floatatom 382 29 6 0 0 0 - - -, f 6;
#X text 400 6 on/off;
#X text 425 29 estimated frequency;
#X obj 628 75 inlet phase-reset;
#X obj 628 104 t b b;
#X msg 626 150 1;
#X msg 659 149 0;
#X connect 2 0 1 0;
#X connect 2 0 12 0;
#X connect 3 0 9 0;
#X connect 5 0 1 0;
#X connect 6 0 7 0;
#X connect 7 0 4 0;
#X connect 9 0 6 0;
#X connect 9 1 7 1;
#X connect 9 2 10 0;
#X connect 10 0 5 1;
#X connect 11 0 5 0;
#X connect 12 0 13 0;
#X connect 13 0 14 0;
#X connect 17 0 18 0;
#X connect 18 0 19 0;
#X connect 18 1 20 0;
#X connect 19 0 11 0;
#X connect 20 0 11 0;
#X coords 0 -1 1 1 245 186 1 318 8;
