#N canvas 323 198 1132 535 12;
#X obj 245 13 / 127;
#X obj 143 132 expr~ $v1 > $v2;
#X obj 143 73 phasor~ 200;
#X obj 245 42 clip 0.001 0.997;
#X msg 245 70 \$1 10;
#X obj 245 101 line~;
#X obj 143 -90 inlet f0;
#X obj 143 360 outlet~;
#X obj 245 -90 inlet index;
#X obj 280 -25 f \$1;
#X obj 280 -55 loadbang;
#X connect 0 0 3 0;
#X connect 1 0 7 0;
#X connect 2 0 1 0;
#X connect 3 0 4 0;
#X connect 4 0 5 0;
#X connect 5 0 1 1;
#X connect 6 0 2 0;
#X connect 8 0 0 0;
#X connect 9 0 3 0;
#X connect 10 0 9 0;
