#N canvas 685 163 1132 510 12;
#X obj 143 132 expr~ $v1 > $v2;
#X obj 143 73 phasor~ 200;
#X obj 143 -16 inlet f0;
#X obj 143 180 outlet~;
#X obj 245 -20 inlet index;
#X obj 245 99 abs~;
#X obj 340 20 f \$1;
#X obj 340 -20 loadbang;
#X obj 245 70 osc~;
#X connect 0 0 3 0;
#X connect 1 0 0 0;
#X connect 2 0 1 0;
#X connect 4 0 8 0;
#X connect 5 0 0 1;
#X connect 6 0 8 0;
#X connect 7 0 6 0;
#X connect 8 0 5 0;
