#N canvas 0 52 1920 977 12;
#X obj 360 20 samplerate~;
#X obj 360 50 s sr;
#X obj 631 30 phasor~;
#X obj 775 79 -~ 0.5;
#X obj 775 103 *~ 0.5;
#X obj 631 185 *~;
#X obj 775 126 cos~;
#N canvas 0 0 450 300 (subpatch) 0;
#X array sine 48000 float 0 black black;
#X coords 0 1 47999 -1 200 140 1;
#X restore 1200 -40 graph;
#N canvas 0 0 450 300 (subpatch) 0;
#X array window 48000 float 2 black black;
#X coords 0 1 48000 -1 200 140 1;
#X restore 1100 160 graph;
#X obj 830 210 tabwrite~ window;
#X obj 870 140 tgl 15 0 empty empty empty 17 7 0 10 #fcfcfc #000000
#000000 1 1;
#X obj 360 -16 bng 15 250 50 0 empty empty empty 17 7 0 10 #fcfcfc
#000000 #000000;
#X msg 260 130 \; window resize \$1;
#X msg 631 -10 1;
#X obj 530 110 osc~;
#X msg 520 40 10;
#X msg 300 190 \; sine resize \$1;
#X obj 520 290 tabwrite~ sine;
#X obj 870 164 metro 10;
#X obj 540 -180 bng 72 250 50 0 empty empty empty 17 7 0 10 #fcfcfc
#000000 #000000;
#X msg 570 -70 0;
#X text 620 -140 GO !!!!!;
#X floatatom 920 110 5 0 0 0 - - -, f 5;
#X obj 860 90 bng 15 250 50 0 empty empty empty 17 7 0 10 #fcfcfc #000000
#000000;
#X obj 660 300 tabwrite~ RESULT;
#N canvas 0 0 450 300 (subpatch) 0;
#X array RESULT 48000 float 0 black black;
#X coords 0 1 47999 -1 200 140 1;
#X restore 790 440 graph;
#X msg 320 260 \; RESULT resize \$1;
#X msg 570 70 0;
#X connect 0 0 1 0;
#X connect 0 0 12 0;
#X connect 0 0 16 0;
#X connect 0 0 26 0;
#X connect 2 0 3 0;
#X connect 3 0 4 0;
#X connect 4 0 6 0;
#X connect 5 0 24 0;
#X connect 6 0 5 1;
#X connect 6 0 9 0;
#X connect 10 0 18 0;
#X connect 11 0 0 0;
#X connect 13 0 2 0;
#X connect 14 0 17 0;
#X connect 14 0 5 0;
#X connect 15 0 14 0;
#X connect 19 0 20 0;
#X connect 19 0 23 0;
#X connect 19 0 27 0;
#X connect 20 0 2 1;
#X connect 22 0 18 1;
#X connect 23 0 9 0;
#X connect 23 0 24 0;
#X connect 23 0 17 0;
#X connect 27 0 14 1;
