#N canvas 202 167 1509 886 10;
#N canvas 407 271 1019 792 make-tone 0;
#X obj 72 407 phasor~;
#X obj 72 435 expr~ $v1 > 0.1;
#X floatatom 72 382 5 0 0 0 - - -, f 5;
#X msg 271 -55 60;
#X obj 271 -103 loadbang;
#X obj 99 237 r NOTE;
#X obj 360 130 hradio 15 1 0 8 empty empty empty 0 -8 0 10 #fcfcfc
#000000 #000000 3;
#X obj 72 171 - 4;
#X obj 72 194 * 12;
#X obj 72 94 loadbang;
#X msg 72 119 3;
#X obj 72 321 +;
#X obj 99 272 t b f;
#X obj 72 355 mtof;
#X text 360 113 transposition (8ves);
#X obj 200 395 s NOTE;
#X obj 200 270 *~;
#X obj 330 190 tgl 15 0 empty empty empty 17 7 0 10 #fcfcfc #000000
#000000 0 1;
#X text 350 190 use audio in for the tone;
#X floatatom 330 170 5 0 0 0 - - -, f 5;
#X obj 523 -169 key;
#X floatatom 523 -144 5 0 0 0 - - -, f 5;
#X msg 520 -79 60;
#X msg 554 -79 61;
#X msg 588 -79 62;
#X msg 618 -79 63;
#X msg 638 -79 64;
#X msg 669 -79 65;
#X msg 706 -79 66;
#X msg 740 -79 67;
#X msg 764 -79 68;
#X msg 796 -79 69;
#X msg 827 -79 70;
#X msg 862 -79 71;
#X msg 901 -79 72;
#X obj 523 -120 sel 113 122 115 101 100 102 116 103 121 104 117 106
107, f 70;
#X obj 616 5 s NOTE;
#X obj 200 195 adc~ 1 2, f 13;
#X obj 275 270 *~;
#X obj 350 210 hradio 12 0 0 2 empty empty empty 0 -8 0 10 #fcfcfc
#000000 #000000 0;
#X text 375 208 audio in 1/2;
#X obj 72 463 outlet~ tone;
#X obj 200 340 + 0.49;
#X obj 200 365 int;
#X text 240 350 round to nearest integer;
#X obj 200 290 zexy/mux~ . .;
#X msg 120 120 0;
#X floatatom 260 400 5 0 0 0 - - -, f 5;
#X floatatom 370 410 5 0 0 0 - - -, f 5;
#X obj 200 310 fiddle~/fiddle~ 1024;
#X obj 663 119 notein;
#X floatatom 663 144 5 0 0 0 - - -, f 5;
#X obj 580 290 spigot;
#X obj 330 230 tgl 15 0 empty empty empty 17 7 0 10 #fcfcfc #000000
#000000 1 1;
#X obj 580 315 s NOTE;
#X text 363 170 current tone;
#X text 350 230 use midi in for the tone;
#X connect 0 0 1 0;
#X connect 1 0 41 0;
#X connect 2 0 0 0;
#X connect 3 0 12 0;
#X connect 4 0 3 0;
#X connect 5 0 12 0;
#X connect 6 0 7 0;
#X connect 7 0 8 0;
#X connect 8 0 11 0;
#X connect 9 0 10 0;
#X connect 9 0 46 0;
#X connect 10 0 6 0;
#X connect 11 0 13 0;
#X connect 11 0 19 0;
#X connect 12 0 11 0;
#X connect 12 1 11 1;
#X connect 13 0 2 0;
#X connect 16 0 45 0;
#X connect 17 0 16 1;
#X connect 17 0 38 1;
#X connect 20 0 21 0;
#X connect 21 0 35 0;
#X connect 22 0 36 0;
#X connect 23 0 36 0;
#X connect 24 0 36 0;
#X connect 25 0 36 0;
#X connect 26 0 36 0;
#X connect 27 0 36 0;
#X connect 28 0 36 0;
#X connect 29 0 36 0;
#X connect 30 0 36 0;
#X connect 31 0 36 0;
#X connect 32 0 36 0;
#X connect 33 0 36 0;
#X connect 34 0 36 0;
#X connect 35 0 22 0;
#X connect 35 1 23 0;
#X connect 35 2 24 0;
#X connect 35 3 25 0;
#X connect 35 4 26 0;
#X connect 35 5 27 0;
#X connect 35 6 28 0;
#X connect 35 7 29 0;
#X connect 35 8 30 0;
#X connect 35 9 31 0;
#X connect 35 10 32 0;
#X connect 35 11 33 0;
#X connect 35 12 34 0;
#X connect 37 0 16 0;
#X connect 37 1 38 0;
#X connect 38 0 45 1;
#X connect 39 0 45 0;
#X connect 42 0 43 0;
#X connect 43 0 15 0;
#X connect 43 0 47 0;
#X connect 45 0 49 0;
#X connect 46 0 39 0;
#X connect 46 0 17 0;
#X connect 49 0 42 0;
#X connect 49 0 48 0;
#X connect 50 0 51 0;
#X connect 50 0 52 0;
#X connect 52 0 54 0;
#X connect 53 0 52 1;
#X coords 0 -1 1 1 252 182 1 303 80;
#X restore 510 -80 pd make-tone;
#N canvas 409 164 1306 780 get-source 0;
#X obj 163 -244 vradio 15 0 0 3 empty empty empty 0 -8 0 10 #fcfcfc
#000000 #000000 1;
#X obj 663 -60 readsf~;
#X obj 290 -215 bng 15 250 50 0 empty empty empty 17 7 0 10 #fcfcfc
#000000 #000000;
#X obj 718 -155 t b b;
#X msg 718 -126 start;
#X msg 663 -113 stop;
#X msg 745 -102 open /home/arthur/ISEN/geekeries/sons/r4.wav;
#X obj 183 -195 hradio 12 0 0 20 empty empty empty 0 -8 0 10 #fcfcfc
#000000 #000000 0;
#X obj 734 -551 sel 0 1 2 3 4 5 6 7 8 9 10 11 12 13 14 15 16 17 18
19, f 37;
#X msg 734 -513 set open /home/arthur/ISEN/geekeries/sons/r1.wav;
#X msg 748 -493 set open /home/arthur/ISEN/geekeries/sons/r2.wav;
#X msg 766 -472 set open /home/arthur/ISEN/geekeries/sons/r3.wav;
#X msg 780 -452 set open /home/arthur/ISEN/geekeries/sons/r4.wav;
#X msg 798 -429 set open /home/arthur/ISEN/geekeries/sons/chirac1.wav
;
#X msg 812 -409 set open /home/arthur/ISEN/geekeries/sons/chirac2.wav
;
#X msg 830 -388 set open /home/arthur/ISEN/geekeries/sons/chirac3.wav
;
#X msg 844 -368 set open /home/arthur/ISEN/geekeries/sons/chirac4.wav
;
#X msg 857 -346 set open /home/arthur/ISEN/geekeries/sons/lefebvre1.wav
;
#X msg 866 -324 set open /home/arthur/ISEN/geekeries/sons/baiser1.wav
;
#X obj 490 -295 key;
#X obj 490 -270 sel 32;
#X msg 881 -302 set open /home/arthur/ISEN/geekeries/sons/cmonchoix1.wav
;
#X msg 890 -280 set open /home/arthur/ISEN/geekeries/sons/cmonchoix2.wav
;
#X text 183 -245 audio in 1;
#X obj 570 -60 adc~ 1 2;
#X text 183 -231 audio in 2;
#X text 183 -215 sound file;
#X text 143 -264 select the source sound;
#X text 307 -217 start (space key);
#X obj 570 20 outlet~ source;
#X obj 320 -365 env~;
#X floatatom 350 -260 5 0 0 0 - - -, f 5;
#X text 330 -280 vu-meter;
#X symbolatom 180 -180 49 0 0 0 - - -, f 49;
#X obj 939 -242 unpack s s s;
#X obj 570 -15 zexy/mux~ . . ., f 16;
#X connect 0 0 35 0;
#X connect 1 0 35 2;
#X connect 1 1 3 0;
#X connect 2 0 3 0;
#X connect 3 0 4 0;
#X connect 3 1 6 0;
#X connect 4 0 1 0;
#X connect 5 0 1 0;
#X connect 6 0 1 0;
#X connect 7 0 8 0;
#X connect 8 0 9 0;
#X connect 8 1 10 0;
#X connect 8 2 11 0;
#X connect 8 3 12 0;
#X connect 8 4 13 0;
#X connect 8 5 14 0;
#X connect 8 6 15 0;
#X connect 8 7 16 0;
#X connect 8 8 17 0;
#X connect 8 9 18 0;
#X connect 8 10 21 0;
#X connect 8 11 22 0;
#X connect 9 0 6 0;
#X connect 9 0 34 0;
#X connect 10 0 6 0;
#X connect 10 0 34 0;
#X connect 11 0 6 0;
#X connect 11 0 34 0;
#X connect 12 0 6 0;
#X connect 12 0 34 0;
#X connect 13 0 6 0;
#X connect 13 0 34 0;
#X connect 14 0 6 0;
#X connect 14 0 34 0;
#X connect 15 0 6 0;
#X connect 15 0 34 0;
#X connect 16 0 6 0;
#X connect 16 0 34 0;
#X connect 17 0 6 0;
#X connect 17 0 34 0;
#X connect 18 0 6 0;
#X connect 18 0 34 0;
#X connect 19 0 20 0;
#X connect 20 0 2 0;
#X connect 21 0 6 0;
#X connect 21 0 34 0;
#X connect 22 0 6 0;
#X connect 22 0 34 0;
#X connect 24 0 35 0;
#X connect 24 1 35 1;
#X connect 30 0 31 0;
#X connect 34 2 33 0;
#X connect 35 0 29 0;
#X connect 35 0 30 0;
#X coords 0 -1 1 1 363 152 1 130 -313;
#X restore 95 -50 pd get-source;
#N canvas 646 643 450 300 settings 0;
#X obj 68 49 metro 20;
#X obj 68 23 loadbang;
#X text 40 100 for computing the average in the envelope following
;
#X obj 68 80 s update;
#X connect 0 0 3 0;
#X connect 1 0 0 0;
#X restore 10 -70 pd settings;
#X obj 70 340 dac~ 1 2;
#N canvas 0 1112 1920 1048 filters 0;
#X obj 100 156 myfilter 100 30;
#X obj 100 182 myfilter 125 30;
#X obj 100 206 myfilter 160 30;
#X obj 100 232 myfilter 200 30;
#X obj 100 256 myfilter 250 30;
#X obj 100 282 myfilter 315 30;
#X obj 101 332 myfilter 400 30;
#X obj 101 358 myfilter 500 30;
#X obj 101 384 myfilter 630 30;
#X obj 101 410 myfilter 800 30;
#X obj 101 434 myfilter 1000 30;
#X obj 101 460 myfilter 1250 30;
#X obj 101 484 myfilter 1600 30;
#X obj 101 510 myfilter 2000 30;
#X obj 101 562 myfilter 2500 30;
#X obj 101 588 myfilter 3150 30;
#X obj 101 614 myfilter 4000 30;
#X obj 101 640 myfilter 5000 30;
#X obj 101 664 myfilter 6300 30;
#X obj 101 690 myfilter 8000 30;
#X obj 101 714 myfilter 10000 30;
#X obj 101 740 myfilter 12500 30;
#X obj 100 54 inlet~ source;
#X obj 140 830 env~;
#X floatatom 340 350 5 0 0 0 - - -, f 5;
#X obj 100 830 +~;
#X obj 100 855 outlet~ cooked;
#X text 320 330 vu-meter;
#X obj 260 54 inlet~ tone;
#X obj 100 100 myfilter 63 30;
#X obj 100 130 myfilter 80 30;
#X connect 0 0 25 0;
#X connect 1 0 25 0;
#X connect 2 0 25 0;
#X connect 3 0 25 0;
#X connect 4 0 25 0;
#X connect 5 0 25 0;
#X connect 6 0 25 0;
#X connect 7 0 25 0;
#X connect 8 0 25 0;
#X connect 9 0 25 0;
#X connect 10 0 25 0;
#X connect 11 0 25 0;
#X connect 12 0 25 0;
#X connect 13 0 25 0;
#X connect 14 0 25 0;
#X connect 15 0 25 0;
#X connect 16 0 25 0;
#X connect 17 0 25 0;
#X connect 18 0 25 0;
#X connect 19 0 25 0;
#X connect 20 0 25 0;
#X connect 21 0 25 0;
#X connect 22 0 6 0;
#X connect 22 0 0 0;
#X connect 22 0 1 0;
#X connect 22 0 2 0;
#X connect 22 0 3 0;
#X connect 22 0 4 0;
#X connect 22 0 5 0;
#X connect 22 0 7 0;
#X connect 22 0 8 0;
#X connect 22 0 9 0;
#X connect 22 0 10 0;
#X connect 22 0 11 0;
#X connect 22 0 12 0;
#X connect 22 0 13 0;
#X connect 22 0 14 0;
#X connect 22 0 15 0;
#X connect 22 0 16 0;
#X connect 22 0 17 0;
#X connect 22 0 18 0;
#X connect 22 0 19 0;
#X connect 22 0 20 0;
#X connect 22 0 21 0;
#X connect 22 0 30 0;
#X connect 22 0 29 0;
#X connect 23 0 24 0;
#X connect 25 0 26 0;
#X connect 25 0 23 0;
#X connect 28 0 29 1;
#X connect 28 0 0 1;
#X connect 28 0 1 1;
#X connect 28 0 2 1;
#X connect 28 0 3 1;
#X connect 28 0 4 1;
#X connect 28 0 5 1;
#X connect 28 0 6 1;
#X connect 28 0 7 1;
#X connect 28 0 8 1;
#X connect 28 0 10 1;
#X connect 28 0 9 1;
#X connect 28 0 11 1;
#X connect 28 0 12 1;
#X connect 28 0 13 1;
#X connect 28 0 14 1;
#X connect 28 0 15 1;
#X connect 28 0 16 1;
#X connect 28 0 17 1;
#X connect 28 0 18 1;
#X connect 28 0 19 1;
#X connect 28 0 20 1;
#X connect 28 0 21 1;
#X connect 28 0 30 1;
#X connect 29 0 25 0;
#X connect 30 0 25 0;
#X coords 0 -1 1 1 102 71 1 287 304;
#X restore 170 140 pd filters;
#X text 110 100 source signal;
#X text 180 220 cooked signal;
#X obj 40 250 vradio 15 0 0 2 empty empty empty 0 -8 0 10 #fcfcfc #000000
#000000 1;
#X text 0 249 source;
#X text 0 264 cooked;
#X obj 40 210 loadbang;
#X msg 40 230 1;
#X text 510 110 tone signal;
#X obj 95 300 zexy/mux~ . .;
#X connect 0 0 4 1;
#X connect 1 0 4 0;
#X connect 1 0 13 0;
#X connect 4 0 13 1;
#X connect 7 0 13 0;
#X connect 10 0 11 0;
#X connect 11 0 7 0;
#X connect 13 0 3 0;
#X connect 13 0 3 1;
